<svg xmlns="http://www.w3.org/2000/svg" width="48" height="48" viewBox="0 0 48 48" fill="none">
  <!-- Open book left page -->
  <path d="M4 36C4 29.373 9.373 24 16 24H24V40H8C5.791 40 4 38.209 4 36Z" fill="#7c3aed"/>
  <!-- Open book right page -->
  <path d="M44 36C44 29.373 38.627 24 32 24H24V40H40C42.209 40 44 38.209 44 36Z" fill="#6d28d9"/>
  <!-- Book spine bottom -->
  <rect x="22" y="38" width="4" height="4" rx="1" fill="#5b21b6"/>
  <!-- Speech bubble -->
  <rect x="11" y="6" width="26" height="17" rx="8" fill="#7c3aed"/>
  <!-- Bubble tail -->
  <path d="M22 23L19 27L25 23Z" fill="#7c3aed"/>
  <!-- Dots inside bubble -->
  <circle cx="18" cy="14" r="2" fill="white"/>
  <circle cx="24" cy="14" r="2" fill="white"/>
  <circle cx="30" cy="14" r="2" fill="white"/>
</svg>
